# xmcd CD database file
#
# Track frame offsets:
#	150
#	18583
#	37992
#	59203
#	78135
#	96825
#	119754
#	143027
#	160468
#	178008
#	198921
#	215714
#	227607
#	253611
#	266408
#	287281
#
# Disc length: 3990 seconds
#
# Revision: 0
# Processed by: cddbd v1.5.2PL0 Copyright (c) Steve Scherf et al.
# Submitted via: CDex 1.51
#
DISCID=e50f9410
DTITLE=Joe Cocker - Classic Cocker
DYEAR=2008
DGENRE=Blues
TTITLE0=Feelin' Alright
TTITLE1=Come Together
TTITLE2=When The Night Comes
TTITLE3=You Can Leave Your Hat On
TTITLE4=The Letter
TTITLE5=Unchain My Heart
TTITLE6=With A Little Help From My Friends
TTITLE7=Summer In The City
TTITLE8=Up Where We Belong
TTITLE9=Have A Little Faith In Me
TTITLE10=Many Rivers To Cross
TTITLE11=You Are So Beautiful
TTITLE12=Could You Be Loved
TTITLE13=Delta Lady
TTITLE14=Hitchcock Railway
TTITLE15=She Came In Through The Bathroom Window
EXTD=YEAR: 2008
EXTT0=
EXTT1=
EXTT2=
EXTT3=
EXTT4=
EXTT5=
EXTT6=
EXTT7=
EXTT8=
EXTT9=
EXTT10=
EXTT11=
EXTT12=
EXTT13=
EXTT14=
EXTT15=
PLAYORDER=
